<svg xmlns="http://www.w3.org/2000/svg" width="159.492" height="47.257" viewBox="0 0 159.492 47.257">
  <g id="Group_51251" data-name="Group 51251" transform="translate(-142 -39)">
    <g id="Group_47263" data-name="Group 47263" transform="translate(142 113.453)">
      <g id="Group_46614" data-name="Group 46614" transform="translate(0 -74.453)">
        <path id="Path_52" data-name="Path 52" d="M66.884-63.22v-3.053H61.622v23.429h5.262V-51.7c0-4.176.7-6.792,2.192-8.235a6.158,6.158,0,0,1,4.7-1.438h1.836v-5.2H73.937A8.487,8.487,0,0,0,66.884-63.22Z" transform="translate(29.38 78.208)" fill="#278EFF"/>
        <path id="Path_53" data-name="Path 53" d="M19.941-58.462,7.786-70.582l3.792-3.782,8.363,8.339L28.4-74.453l3.792,3.781Z" transform="translate(3.712 74.453)" fill="#278EFF"/>
        <path id="Path_54" data-name="Path 54" d="M11.578-37.29,7.786-41.072l12.245-12.21,12.157,12.12L28.4-37.38l-8.364-8.339Z" transform="translate(3.712 84.547)" fill="#278EFF"/>
        <path id="Path_55" data-name="Path 55" d="M33.48-42.361,21.235-54.571,33.39-66.691l3.792,3.781L28.82-54.571l8.455,8.428Z" transform="translate(10.124 78.154)" fill="#278EFF"/>
        <path id="Path_56" data-name="Path 56" d="M3.882-42.361.09-46.142l8.364-8.339L0-62.909l3.792-3.782,12.247,12.21Z" transform="translate(0 78.154)" fill="#278EFF"/>
        <path id="Path_57" data-name="Path 57" d="M60.077-50.979c-.523,2.174-2.036,4.357-6.012,4.357-2.767,0-6.445-.809-6.445-7.811,0-5.328,2.088-7.811,6.575-7.811,3.149,0,5.068,1.466,5.718,4.357H65.03c-.6-5.616-4.662-8.952-10.965-8.952-7.139,0-11.751,4.87-11.751,12.406s4.612,12.406,11.751,12.406c6.216,0,10.519-3.485,11.193-8.952Z" transform="translate(20.175 78.083)" fill="#278EFF"/>
        <path id="Path_58" data-name="Path 58" d="M90.464-48.928c-.957,1.661-2.731,2.478-5.387,2.478-3.99,0-6.077-2.011-6.51-6.313H95.822l.124-.746a9.333,9.333,0,0,0,.1-1.661c0-7.09-4.356-11.671-11.1-11.671a11.186,11.186,0,0,0-8.763,3.624,13.084,13.084,0,0,0-2.9,8.74c0,7.8,4.359,12.451,11.662,12.451,7.747,0,10.088-4.362,10.792-6.9ZM84.991-62.417c3.571,0,5.438,1.682,5.817,5.274h-12.1c.6-3.637,2.571-5.274,6.281-5.274Z" transform="translate(34.941 78.082)" fill="#278EFF"/>
        <path id="Path_59" data-name="Path 59" d="M111.128-65.973v2.3a10.712,10.712,0,0,0-2.293-1.623,11.031,11.031,0,0,0-5.179-1.22,11.489,11.489,0,0,0-4.584.893,11.476,11.476,0,0,0-3.847,2.64,11.7,11.7,0,0,0-2.62,3.891,11.666,11.666,0,0,0-.877,4.6,11.871,11.871,0,0,0,.858,4.647,11.88,11.88,0,0,0,2.607,3.949,11.737,11.737,0,0,0,6.355,3.367,11.759,11.759,0,0,0,7.13-.969,11.766,11.766,0,0,0,2.453-1.624v2.23h4.63V-65.973Zm.059,11.649a7.657,7.657,0,0,1-.942,3.8,6.775,6.775,0,0,1-2.674,2.638,7.5,7.5,0,0,1-3.711.986,6.958,6.958,0,0,1-3.608-.988,7.3,7.3,0,0,1-2.689-2.77A7.447,7.447,0,0,1,96.554-54.4a7.471,7.471,0,0,1,1-3.739,7.068,7.068,0,0,1,2.666-2.731,7.222,7.222,0,0,1,3.661-.97,6.958,6.958,0,0,1,2.825.523,6.914,6.914,0,0,1,2.369,1.62A7.291,7.291,0,0,1,111.187-54.324Z" transform="translate(43.733 78.236)" fill="#278EFF"/>
      </g>
    </g>
  </g>
</svg>
